# xmcd CD database file generated by Grip 3.3.1
# 
# Track frame offsets:
#       150
#       14480
#       31758
#       44418
#       61655
# 
# Disc length: 1001 seconds
# 
# Revision: 1
# Processed by: cddbd v1.5.2PL0 Copyright (c) Steve Scherf et al.
# Submitted via: Grip 3.3.1
# 
DISCID=3403e705
DTITLE=James Walker - Modern Medicine
DYEAR=2016
DGENRE=Blues
TTITLE0=The day I danced with your ghost
TTITLE1=Love on the line
TTITLE2=Right person, wrong time
TTITLE3=Modern Medicine
TTITLE4=Orange tree
EXTD=
EXTT0=
EXTT1=
EXTT2=
EXTT3=
EXTT4=
PLAYORDER=
